<?xml version="1.0" standalone="no"?>
<!DOCTYPE svg PUBLIC "-//W3C//DTD SVG 20010904//EN"
 "http://www.w3.org/TR/2001/REC-SVG-20010904/DTD/svg10.dtd">
<svg version="1.0" xmlns="http://www.w3.org/2000/svg"
 width="300.000000pt" height="272.000000pt" viewBox="0 0 300.000000 272.000000"
 preserveAspectRatio="xMidYMid meet">
<metadata>
Created by potrace 1.13, written by Peter Selinger 2001-2015
</metadata>
<g transform="translate(0.000000,272.000000) scale(0.100000,-0.100000)"
fill="#000000" stroke="none">
<path d="M33 2685 l-33 -34 0 -1030 0 -1030 24 -28 24 -28 501 -3 501 -3 0
-87 c0 -118 -13 -158 -69 -213 -46 -47 -96 -69 -154 -69 -36 0 -77 -41 -77
-76 0 -16 11 -37 31 -55 l31 -29 687 0 687 0 27 28 c53 55 21 132 -54 132 -54
0 -139 48 -174 98 -28 41 -30 51 -35 158 l-5 114 488 0 c509 0 514 0 549 44
16 20 18 90 18 1048 l0 1027 -37 36 -36 35 -1431 0 -1431 0 -32 -35z m2805
-918 l2 -787 -1342 2 -1343 3 -3 775 c-1 426 0 781 3 788 3 10 277 12 1342 10
l1338 -3 3 -788z m2 -1012 l0 -75 -1342 2 -1343 3 -3 73 -3 72 1346 0 1345 0
0 -75z m-1038 -348 c3 -114 5 -128 34 -185 l31 -62 -370 0 c-203 0 -367 3
-365 8 59 116 62 126 66 245 l4 117 298 0 298 0 4 -123z"/>
<path d="M1543 2252 c-199 -51 -308 -83 -322 -96 -20 -19 -21 -28 -21 -300 l0
-281 -64 3 c-231 12 -325 -240 -127 -340 109 -55 249 -26 309 65 27 40 27 41
32 281 l5 241 205 52 c113 29 213 53 223 53 16 0 17 -10 15 -102 l-3 -102 -57
3 c-135 6 -238 -73 -238 -184 0 -164 243 -250 376 -133 70 62 69 54 72 453 2
198 0 375 -3 393 -8 43 -38 72 -72 71 -16 0 -164 -35 -330 -77z m257 -132 c0
-25 -5 -31 -37 -39 -82 -21 -403 -101 -408 -101 -3 0 -5 15 -5 34 l0 34 218
54 c119 30 220 53 225 51 4 -2 7 -17 7 -33z"/>
</g>
</svg>
