<?xml version="1.0" standalone="no"?>
<!DOCTYPE svg PUBLIC "-//W3C//DTD SVG 20010904//EN"
 "http://www.w3.org/TR/2001/REC-SVG-20010904/DTD/svg10.dtd">
<svg version="1.0" xmlns="http://www.w3.org/2000/svg"
 width="900.000000pt" height="272.000000pt" viewBox="0 0 900.000000 272.000000"
 preserveAspectRatio="xMidYMid meet">
<metadata>
Created by potrace 1.13, written by Peter Selinger 2001-2015
</metadata>
<g transform="translate(0.000000,272.000000) scale(0.100000,-0.100000)"
fill="#000000" stroke="none">
<path d="M1392 2589 l-32 -31 0 -957 0 -958 26 -24 26 -24 464 -3 464 -3 0
-70 c0 -39 -5 -90 -11 -113 -21 -83 -107 -155 -185 -156 -75 0 -110 -77 -58
-125 l27 -25 643 0 642 0 27 32 c20 23 25 38 20 57 -8 37 -41 61 -84 61 -21 0
-57 12 -87 30 -76 43 -104 104 -104 222 l0 87 466 3 466 3 24 30 24 30 0 946
0 946 -33 37 -33 36 -1330 0 -1330 0 -32 -31z m2608 -849 l0 -730 -1247 2
-1248 3 -3 715 c-1 393 0 721 3 728 3 9 263 12 1250 12 l1245 0 0 -730z m0
-940 l0 -70 -1247 2 -1248 3 -3 68 -3 67 1251 0 1250 0 0 -70z m-970 -298 c0
-89 19 -178 46 -217 8 -11 14 -23 14 -27 0 -5 -153 -8 -340 -8 l-339 0 25 48
c29 55 47 160 42 238 l-3 54 278 0 277 0 0 -88z"/>
<path d="M2794 2187 c-155 -40 -288 -78 -298 -86 -14 -12 -16 -44 -16 -276 l0
-262 -67 0 c-122 1 -213 -71 -213 -168 0 -155 208 -232 348 -128 59 44 62 59
62 298 0 214 0 215 23 225 19 9 378 100 392 100 3 0 5 -42 5 -94 l0 -94 -79
-3 c-69 -4 -85 -8 -122 -34 -54 -38 -85 -104 -75 -159 9 -46 59 -104 111 -127
100 -46 239 -6 283 81 22 43 22 51 22 398 l0 353 -25 24 c-13 14 -34 25 -47
24 -13 0 -149 -33 -304 -72z m234 -119 l-3 -33 -202 -51 c-111 -29 -204 -49
-208 -46 -10 10 -5 51 7 58 9 6 375 100 401 103 5 1 7 -14 5 -31z"/>
<path d="M7446 2595 c-68 -24 -141 -82 -352 -284 l-207 -197 -81 11 c-45 7
-148 20 -229 31 -81 10 -153 21 -159 25 -6 4 5 26 31 59 46 58 50 85 20 124
-44 56 -104 22 -231 -132 l-27 -33 -143 26 c-198 36 -190 30 -134 93 25 29 46
56 46 60 0 4 -9 21 -19 39 -40 65 -82 53 -195 -56 l-81 -79 -172 25 c-107 16
-187 23 -210 18 -27 -5 -55 -25 -105 -72 -37 -37 -68 -69 -68 -73 0 -7 89 -40
515 -194 367 -132 620 -277 666 -382 43 -96 5 -154 -295 -453 l-225 -225 -213
28 c-117 15 -231 30 -253 33 -37 5 -47 0 -123 -57 -46 -34 -82 -63 -80 -64 2
-2 95 -56 208 -121 113 -65 210 -122 217 -127 9 -7 4 -22 -19 -59 -17 -28 -28
-52 -25 -55 3 -3 28 6 56 21 29 14 56 23 60 21 5 -3 62 -100 127 -216 66 -115
121 -210 124 -210 14 0 120 162 120 184 0 13 -14 125 -31 247 l-30 221 93 97
c119 123 287 279 358 332 30 23 86 56 125 75 89 43 145 45 201 8 73 -50 105
-111 197 -374 68 -193 122 -346 243 -682 22 -60 44 -108 49 -108 17 0 123 113
134 143 17 44 13 100 -13 205 -14 53 -28 121 -32 150 l-7 54 91 87 c52 50 94
99 97 114 11 42 -2 74 -32 85 -36 12 -66 1 -115 -43 -21 -19 -42 -35 -46 -35
-4 0 -20 73 -35 163 l-27 162 70 65 c85 79 120 125 120 160 0 65 -70 69 -149
9 -29 -22 -55 -38 -58 -35 -3 3 -20 112 -38 243 l-34 238 38 40 c20 22 102
110 182 195 171 182 224 247 255 315 33 70 31 100 -10 141 -38 38 -73 43 -140
19z"/>
<path d="M750 1561 l-355 -159 -3 -54 -3 -55 361 -161 361 -160 -3 80 -3 81
-210 93 c-116 52 -223 100 -239 107 -28 13 -24 15 213 121 l241 108 0 79 c0
44 -1 79 -2 78 -2 0 -163 -71 -358 -158z"/>
<path d="M7782 1639 l3 -80 239 -106 c214 -96 237 -108 215 -117 -13 -6 -121
-54 -239 -107 l-215 -96 -3 -81 -3 -80 361 160 361 161 -3 55 -3 54 -335 149
c-184 82 -345 153 -358 159 l-23 10 3 -81z"/>
<path d="M4400 1400 l0 -150 355 0 356 0 -3 148 -3 147 -352 3 -353 2 0 -150z"/>
</g>
</svg>
